<?xml version="1.0" encoding="utf-8"?>
<!-- Generator: Adobe Illustrator 23.0.1, SVG Export Plug-In . SVG Version: 6.00 Build 0)  -->
<svg version="1.1" id="Layer_1" xmlns="http://www.w3.org/2000/svg" xmlns:xlink="http://www.w3.org/1999/xlink" x="0px" y="0px"
	 viewBox="0 0 51.9 33.8" style="enable-background:new 0 0 51.9 33.8;" xml:space="preserve">
<style type="text/css">
	.st0{fill:#086d36;}
	.st1{fill:#086d36;}
</style>
<path class="st0" d="M47.9,0.5h-44C2,0.5,0.5,2,0.5,3.9V26c0,1.9,1.5,3.4,3.4,3.4h18.4c0.1,0,0.1,0,0.1,0.1l1.5,2.6
	c0.4,0.7,1.2,1.1,2,1.1s1.6-0.4,2-1.2l1.5-2.6c0,0,0.1-0.1,0.1-0.1h18.4c1.9,0,3.4-1.5,3.4-3.4V3.9C51.4,2,49.8,0.5,47.9,0.5z"/>
<path class="st1" d="M3.9,2C2.9,2,2,2.9,2,3.9V26C2,27.1,2.9,28,3.9,28h18.4c0.6,0,1.1,0.3,1.4,0.8l1.5,2.6c0.2,0.3,0.4,0.4,0.7,0.4
	s0.5-0.1,0.7-0.4l1.5-2.6c0.3-0.5,0.8-0.8,1.4-0.8h18.4c1.1,0,1.9-0.9,1.9-1.9V3.9C49.9,2.9,49,2,47.9,2H3.9 M3.9,0h44
	c2.2,0,3.9,1.8,3.9,3.9V26c0,2.2-1.8,3.9-3.9,3.9H29.8l-1.4,2.4c0,0,0,0,0,0c-0.5,0.9-1.4,1.4-2.4,1.4s-1.9-0.5-2.4-1.4c0,0,0,0,0,0
	L22.1,30H3.9C1.8,30,0,28.2,0,26V3.9C0,1.8,1.8,0,3.9,0z"/>
</svg>
